<?xml version="1.0" standalone="no"?>
<svg xmlns="http://www.w3.org/2000/svg" viewBox="0 0 105.223 121.5" width="105.223" height="121.5"><polygon fill="#000000" points="105.223,30.375 105.223,91.125 52.6115,121.5 0,91.125 0,30.375 52.6115,0"></polygon><g fill="white" color="white" transform="translate(30.6115 22.5) scale(0.044)"><svg width="1000.0" height="1000.0" x="0.0" y="0.0" viewBox="0 0 1000 1000"><g><path fill-rule="evenodd" clip-rule="evenodd" fill="currentColor" d="M500.482,908.531c-231.693-0.464-409.454-189.3-408.852-408.232   C92.257,272.207,275.102,90.983,501.612,91.471c225.573,0.487,406.69,183.475,406.758,408.677   C908.438,728.447,723.89,907.56,500.482,908.531z M854.878,368.984c-4.875-13.737-10.432-26.197-16.633-38.379   c-2.807-5.52-2.806-5.543-8.707-4.058c-34.895,8.785-69.784,17.59-104.679,26.368c-59.699,15.018-119.401,30.022-179.103,45.029   c-56.129,14.107-112.259,28.214-168.391,42.316c-56.341,14.156-112.686,28.298-169.024,42.461   c-27.328,6.871-54.63,13.839-81.984,20.6c-4.288,1.061-4.217,2.095-4.186,5.17c0.136,13.692,1.171,27.32,2.931,40.896   c0.31,2.4,0.904,2.823,3.522,2.192c5.9-1.421,11.776-2.945,17.662-4.426c61.172-15.393,122.342-30.791,183.516-46.174   c58.23-14.643,116.463-29.279,174.697-43.904c34.27-8.605,68.549-17.165,102.807-25.808c2.351-0.593,4.668-0.979,7.065-0.854   c6.766,0.355,12.603,5.325,13.824,11.73c1.343,7.042-1.915,13.997-8.065,16.914c-1.547,0.734-3.27,1.136-4.943,1.561   c-22.062,5.591-44.126,11.184-66.201,16.728c-64.751,16.262-129.509,32.493-194.258,48.754   c-70.428,17.687-140.85,35.395-211.273,53.095c-3.363,0.847-6.715,1.737-10.084,2.562c-1.594,0.388-2.042,1.409-1.795,2.887   c0.143,0.854,0.288,1.713,0.494,2.554c2.986,12.225,6.437,24.313,10.485,36.23c0.418,1.231,0.805,2.483,1.363,3.651   c0.379,0.793,1.114,1.335,2.109,1.101c1.054-0.248,2.092-0.565,3.143-0.829c26.704-6.684,53.417-13.336,80.113-20.052   c70.002-17.609,139.989-35.275,209.994-52.868c71.688-18.016,143.395-35.958,215.086-53.96   c63.49-15.943,126.97-31.926,190.454-47.889c8.83-2.221,17.668-4.412,26.49-6.66c2.773-0.706,3.071-1.242,2.565-4.191   c-2.313-13.47-4.993-26.863-8.622-40.051c-0.945-3.434-0.993-3.506-4.355-2.674c-15.147,3.753-30.288,7.548-45.427,11.342   c-35.955,9.009-71.912,18.018-107.856,27.067c-1.904,0.479-3.774,0.95-5.751,0.95c-7.343-0.002-13.793-5.077-15.1-11.91   c-1.467-7.673,2.713-15.106,10.04-17.622c2.246-0.771,4.609-1.205,6.923-1.787c44.142-11.112,88.284-22.222,132.427-33.334   C842.227,372.183,848.302,370.645,854.878,368.984z M156.779,657.541c-0.034,0.224-0.146,0.455-0.08,0.608   c6.115,13.931,13.534,27.162,21.438,40.141c0.95,1.561,2.066,1.952,3.786,1.508c8.815-2.275,17.657-4.45,26.467-6.744   c2.764-0.718,5.522-1.142,8.367-0.864c8.984,0.876,15.079,9.436,12.994,18.188c-1.443,6.057-5.206,9.903-11.146,11.533   c-5.434,1.491-10.921,2.786-16.387,4.16c-0.631,0.159-1.287,0.221-1.913,0.396c-1.725,0.483-2.062,1.346-0.945,2.811   c9.625,12.618,20.138,24.46,31.177,35.858c2.033,2.098,4.087,1.988,6.495,1.372c9.242-2.357,18.487-4.702,27.738-7.026   c59.705-15.004,119.415-29.989,179.118-45.004c61.385-15.438,122.76-30.91,184.145-46.346   c55.92-14.062,111.848-28.092,167.77-42.141c20.603-5.178,41.173-10.488,61.829-15.448c3.558-0.854,5.032-2.587,5.884-5.819   c2.488-9.437,5.066-18.851,6.928-28.438c1.034-5.322,1.985-10.661,2.867-16.01c0.344-2.079-0.36-2.588-2.602-2.201   c-0.854,0.147-1.713,0.294-2.554,0.505c-15.767,3.967-31.527,7.951-47.292,11.916c-56.339,14.166-112.68,28.324-169.02,42.491   c-57.81,14.537-115.618,29.085-173.43,43.615c-10.303,2.589-20.575,5.318-30.945,7.604c-8.304,1.829-15.845-3.161-17.839-11.237   c-1.898-7.688,2.453-15.403,10.167-17.965c1.438-0.477,2.92-0.828,4.391-1.198c50.878-12.774,101.759-25.534,152.635-38.317   c61.597-15.479,123.188-30.983,184.786-46.466c29.852-7.503,59.71-14.978,89.561-22.478c6.211-1.561,6.3-1.583,6.606-8.14   c0.592-12.585,0.549-25.177-0.008-37.766c-0.038-0.866-0.136-1.732-0.262-2.59c-0.233-1.609-0.985-2.07-2.745-1.687   c-0.634,0.138-1.244,0.387-1.873,0.544c-28.168,7.086-56.334,14.177-84.508,21.246c-63.074,15.826-126.159,31.615-189.228,47.468   c-64.749,16.276-129.477,32.633-194.225,48.911c-81.565,20.506-163.143,40.968-244.715,61.443   C158.961,656.289,157.618,656.383,156.779,657.541z M819.42,297.376c-8.302-13.089-16.844-25.098-26.236-36.499   c-3.922-4.76-3.924-4.775-9.717-3.318c-33.004,8.3-66.005,16.606-99.008,24.91c-58.021,14.598-116.039,29.2-174.061,43.79   c-54.449,13.691-108.9,27.368-163.352,41.051c-59.705,15.003-119.411,30.002-179.113,45.013   c-11.564,2.907-23.089,5.972-34.692,8.711c-2.626,0.619-3.615,1.951-4.021,4.295c-0.704,4.061-1.492,8.106-2.204,12.166   c-1.914,10.912-3.085,21.914-3.948,32.951c-0.097,1.245,0.757,1.982,2.032,1.761c1.065-0.185,2.113-0.478,3.163-0.741   c48.984-12.315,97.968-24.638,146.953-36.951c59.917-15.061,119.833-30.119,179.75-45.174   c61.179-15.37,122.357-30.74,183.537-46.102c59.08-14.835,118.161-29.658,177.237-44.504   C816.77,298.478,817.742,298.004,819.42,297.376z M764.52,230.876c-0.367-2.326-2.024-3.203-3.227-4.362   c-10.167-9.802-20.863-18.997-32.072-27.591c-1.894-1.452-3.903-2.76-5.73-4.288c-1.669-1.393-3.445-1.711-5.465-1.165   c-0.837,0.227-1.664,0.488-2.505,0.699c-28.378,7.121-56.76,14.23-85.138,21.358c-56.128,14.098-112.253,28.203-168.377,42.312   c-56.124,14.11-112.246,28.229-168.37,42.343c-43.088,10.836-86.167,21.702-129.282,32.435c-2.821,0.702-4.488,1.928-5.753,4.53   c-7.509,15.442-13.563,31.448-18.855,47.758c-0.753,2.321,0.05,3.053,2.612,2.493c0.846-0.185,1.667-0.482,2.506-0.693   c93.539-23.525,187.073-47.069,280.619-70.563c108.05-27.137,216.111-54.226,324.165-81.348   C754.617,233.547,759.561,232.187,764.52,230.876z M182.584,296.065c1.348,0.584,2.577-0.003,3.817-0.314   c13.034-3.278,26.062-6.574,39.096-9.852c59.704-15.014,119.406-30.027,179.111-45.036c59.495-14.956,118.993-29.901,178.487-44.86   c32.583-8.193,65.158-16.406,97.74-24.606c0.631-0.159,1.297-0.203,1.903-0.42c0.333-0.118,0.748-0.449,0.812-0.751   c0.075-0.341-0.086-0.902-0.349-1.114c-0.669-0.538-1.432-0.965-2.187-1.38c-20.192-11.106-41.257-20.189-63.141-27.415   c-3.082-1.018-5.946-0.794-8.917-0.045c-38.465,9.69-76.924,19.403-115.393,29.077c-59.491,14.963-118.99,29.896-178.481,44.856   c-27.119,6.819-54.218,13.716-81.36,20.442c-2.887,0.714-5.202,1.857-7.154,4.059c-3.746,4.221-7.654,8.299-11.401,12.521   c-11.406,12.848-21.712,26.54-31.07,40.942C183.362,293.298,181.813,294.285,182.584,296.065z M260.667,791.81   c0.916,1.211,1.213,1.805,1.68,2.193c11.205,9.3,23.155,17.563,35.393,25.429c1.777,1.142,3.52,1.488,5.523,0.792   c1.019-0.354,2.106-0.502,3.158-0.767c33.627-8.459,67.251-16.93,100.881-25.382c59.688-15.001,119.378-29.989,179.067-44.984   c58.007-14.572,116.013-29.15,174.021-43.719c21.019-5.278,42.034-10.574,63.075-15.764c3.168-0.782,5.199-2.308,6.818-5.269   c6.451-11.809,12.47-23.82,17.795-36.175c0.457-1.061,1.533-2.115,0.848-3.491c-0.22-0.108-0.442-0.322-0.604-0.282   C652.643,693.467,456.965,742.561,260.667,791.81z M802.227,726.245c-7.368,1.849-14.075,3.53-20.781,5.215   c-52.749,13.254-105.5,26.506-158.25,39.761c-58.001,14.572-116.001,29.146-174.003,43.717   c-34.677,8.711-69.356,17.413-104.034,26.12c-1.347,0.339-2.779,0.527-3.827,1.931c0.994,0.59,1.699,1.1,2.477,1.454   c20.355,9.311,41.483,16.408,63.105,22.107c2.19,0.578,4.23,0.343,6.388-0.209c11.758-3.004,23.548-5.885,35.317-8.844   c99.821-25.093,199.641-50.201,299.473-75.251c3.48-0.874,6.327-2.431,8.95-4.888c15.076-14.13,29.048-29.261,41.787-45.524   C800.021,730.312,801.458,728.925,802.227,726.245z M543.731,125.335c-30.246-4.748-60.567-4.641-90.811-0.823   c-38.103,4.81-74.754,15.058-109.706,31.106c-23.022,10.57-51.931,27.542-59.806,35.149   C370.592,168.854,457.162,147.095,543.731,125.335z M495.687,877.569c1.966,0.883,4.033,0.464,6.043,0.447   c23.893-0.203,47.587-2.225,71.062-6.933c36.55-7.331,71.4-19.336,104.29-36.937c2.232-1.196,4.362-2.583,6.858-4.067   C676.339,831.221,499.134,875.958,495.687,877.569z"></path><path fill-rule="evenodd" clip-rule="evenodd" fill="currentColor" d="M395.147,663.921c0.041,8.92-4.304,14.57-11.859,16.604   c-6.278,1.69-12.614,3.158-18.92,4.74c-30.906,7.748-61.815,15.486-92.706,23.286c-2.132,0.54-4.234,0.928-6.417,0.855   c-7.302-0.235-13.178-5.34-14.518-12.587c-1.213-6.566,2.671-13.673,9.049-16.392c1.382-0.589,2.878-0.927,4.343-1.296   c34.257-8.633,68.517-17.252,102.775-25.879c2.942-0.741,5.849-1.648,8.819-2.252c3.667-0.745,7.331-0.78,10.816,0.963   C392.079,654.742,395.016,659.176,395.147,663.921z"></path></g></svg></g><path fill="white" fill-rule="nonzero" d="M6.19 24.50Q2.91 24.50 1.46 22.88Q0 21.25 0 17.64L0 17.64L0 15.29L4.73 15.29L4.73 18.28Q4.73 20.08 5.88 20.08L5.88 20.08Q6.52 20.08 6.78 19.70Q7.03 19.32 7.03 18.42L7.03 18.42Q7.03 17.25 6.75 16.48Q6.47 15.71 6.03 15.19Q5.60 14.67 4.48 13.58L4.48 13.58L2.41 11.51Q0 9.16 0 6.30L0 6.30Q0 3.22 1.41 1.61Q2.83 0 5.54 0L5.54 0Q8.79 0 10.22 1.72Q11.65 3.44 11.65 7.11L11.65 7.11L6.75 7.11L6.72 5.46Q6.72 4.98 6.45 4.70Q6.19 4.42 5.71 4.42L5.71 4.42Q5.15 4.42 4.87 4.73Q4.59 5.04 4.59 5.57L4.59 5.57Q4.59 6.75 5.94 8.01L5.94 8.01L8.74 10.70Q9.72 11.65 10.36 12.50Q11.00 13.36 11.40 14.52Q11.79 15.68 11.79 17.28L11.79 17.28Q11.79 20.83 10.49 22.67Q9.18 24.50 6.19 24.50L6.19 24.50Z" transform="translate(46.718, 74.5)"></path></svg>