<?xml version="1.0" standalone="no"?>
<svg xmlns="http://www.w3.org/2000/svg" viewBox="0 0 96.816 36" width="96.816" height="36"><g fill="#fb6900" color="#fb6900" transform="translate(0 3.9999999999999982) scale(0.2800001)"><svg width="100.0" height="100.0" x="0.0" y="0.0" viewBox="0 0 100 100"><g><path fill="currentColor" d="M43.1,49.6c-11.6-1.5-24.9-3.2-28.4-3.4c-1.4,3.1-6.2,14.3-6.1,21.4c5.2,12.3,16,21.9,28.8,25.6   c7.7-4,16.6-12.7,19.1-15.2C52.5,71.4,44.9,53.9,43.1,49.6z"></path><path fill="currentColor" d="M41.4,94.1c2.9,0.6,5.7,0.8,8.6,0.8c16.7,0,31.9-9.2,39.7-23.9c-12.3,7.7-27.3,8.5-30.9,8.6   C56.9,81.6,49.1,89.3,41.4,94.1z"></path><path fill="currentColor" d="M43,46.7c2.6-7,16.8-21.8,20.5-25.6C57.2,9.6,49,5.8,47.1,5.1c-13,0.8-24.9,7.3-32.9,17.7   c-0.7,4.8,0,17.4,0.5,20.6C18.8,43.6,32.1,45.3,43,46.7z"></path><path fill="currentColor" d="M11.1,27.4C7.1,34.2,5,42,5,49.9c0,3.8,0.5,7.6,1.4,11.3c1.5-7,4.8-14.5,5.7-16.6   C11.4,41.9,11,33.3,11.1,27.4z"></path><path fill="currentColor" d="M65.7,22.9c-7.6,7.7-18.9,20.5-20.2,25.2c1.3,3,9.6,22.2,13.5,28.6c3.7-0.1,18.1-1.1,29.5-8.3   c0.5-3.1,3.4-21.2,0-31C87.1,35.7,77.2,25.2,65.7,22.9z"></path><path fill="currentColor" d="M95,49.9c0-5.6-1-11-3-16.1l-0.7,2.7c3.1,9.2,1.3,24.1,0.4,30.3C93.9,61.4,95,55.8,95,49.9z"></path><path fill="currentColor" d="M66.2,20.1c10.3,2.1,18.9,9.7,22.9,13.7l1-4.1c-7.2-14.2-21.2-23.4-37-24.5C57.1,7.7,62,12.3,66.2,20.1z"></path></g></svg></g><path fill="#ffffff" fill-rule="nonzero" d="M5.30 21Q2.50 21 1.25 19.61Q0 18.22 0 15.12L0 15.12L0 13.10L4.06 13.10L4.06 15.67Q4.06 17.21 5.04 17.21L5.04 17.21Q5.59 17.21 5.81 16.88Q6.02 16.56 6.02 15.79L6.02 15.79Q6.02 14.78 5.78 14.12Q5.54 13.46 5.17 13.02Q4.80 12.58 3.84 11.64L3.84 11.64L2.06 9.86Q0 7.85 0 5.40L0 5.40Q0 2.76 1.21 1.38Q2.42 0 4.75 0L4.75 0Q7.54 0 8.76 1.48Q9.98 2.95 9.98 6.10L9.98 6.10L5.78 6.10L5.76 4.68Q5.76 4.27 5.53 4.03Q5.30 3.79 4.90 3.79L4.90 3.79Q4.42 3.79 4.18 4.06Q3.94 4.32 3.94 4.78L3.94 4.78Q3.94 5.78 5.09 6.86L5.09 6.86L7.49 9.17Q8.33 9.98 8.88 10.72Q9.43 11.45 9.77 12.44Q10.10 13.44 10.10 14.81L10.10 14.81Q10.10 17.86 8.99 19.43Q7.87 21 5.30 21L5.30 21ZM15.41 20.81L11.21 20.81L11.21 17.30L15.41 17.30L15.41 20.81ZM20.76 20.81L16.78 20.81L16.78 0.19L20.76 0.19L20.76 20.81ZM26.35 20.81L22.15 20.81L22.15 17.30L26.35 17.30L26.35 20.81ZM32.16 21Q29.93 21 28.84 19.43Q27.74 17.86 27.74 14.66L27.74 14.66L27.74 5.78Q27.74 2.93 29.02 1.46Q30.29 0 32.81 0L32.81 0Q34.85 0 35.98 0.82Q37.10 1.63 37.54 3.19Q37.97 4.75 37.97 7.20L37.97 7.20L33.94 7.20L33.94 5.35Q33.94 4.61 33.73 4.20Q33.53 3.79 33 3.79L33 3.79Q31.82 3.79 31.82 5.33L31.82 5.33L31.82 15.31Q31.82 16.25 32.06 16.73Q32.30 17.21 32.90 17.21L32.90 17.21Q33.50 17.21 33.74 16.73Q33.98 16.25 33.98 15.31L33.98 15.31L33.98 12.36L32.88 12.36L32.88 8.81L37.92 8.81L37.92 20.81L36.26 20.81L35.57 19.08Q34.46 21 32.16 21L32.16 21ZM43.49 20.81L39.29 20.81L39.29 17.30L43.49 17.30L43.49 20.81ZM45.05 20.81L45.05 0.19L50.74 0.19Q52.94 0.19 54.05 1.42Q55.15 2.64 55.18 5.04L55.18 5.04L55.22 14.69Q55.25 17.74 54.17 19.27Q53.09 20.81 50.59 20.81L50.59 20.81L45.05 20.81ZM49.20 17.16L49.92 17.16Q51.05 17.16 51.05 16.06L51.05 16.06L51.05 5.42Q51.05 4.73 50.94 4.38Q50.83 4.03 50.54 3.91Q50.26 3.79 49.66 3.79L49.66 3.79L49.20 3.79L49.20 17.16ZM60.82 20.81L56.62 20.81L56.62 17.30L60.82 17.30L60.82 20.81Z" transform="translate(36, 7.5)"></path></svg>